<svg width="18" height="18" viewBox="0 0 18 18" fill="none" xmlns="http://www.w3.org/2000/svg">
<path d="M9 17.4736C13.6318 17.4736 17.4668 13.6304 17.4668 9.00684C17.4668 4.375 13.6235 0.540039 8.9917 0.540039C4.36816 0.540039 0.533203 4.375 0.533203 9.00684C0.533203 13.6304 4.37646 17.4736 9 17.4736ZM9 10.5508C8.56836 10.5508 8.32764 10.3101 8.31934 9.87012L8.21143 5.34619C8.20312 4.90625 8.52686 4.59082 8.9917 4.59082C9.44824 4.59082 9.78857 4.91455 9.78027 5.35449L9.66406 9.87012C9.65576 10.3184 9.41504 10.5508 9 10.5508ZM9 13.3315C8.50195 13.3315 8.07031 12.9331 8.07031 12.4434C8.07031 11.9536 8.49365 11.5469 9 11.5469C9.50635 11.5469 9.92969 11.9453 9.92969 12.4434C9.92969 12.9414 9.49805 13.3315 9 13.3315Z" fill="#FF3B30"/>
</svg>
