<svg width="200" height="45" viewBox="0 0 200 45" fill="none" xmlns="http://www.w3.org/2000/svg">
<path fill-rule="evenodd" clip-rule="evenodd" d="M37.6398 9.54451L22.3602 0.657163C20.9938 -0.219054 19.1304 -0.219054 17.5155 0.657163L2.36025 9.54451C0.869565 10.4207 0 11.7976 0 13.6752V31.4499C0 33.2024 0.993789 34.7044 2.36025 35.5807L17.6398 44.3428C19.2547 45.2191 21.118 45.2191 22.4845 44.3428L37.6398 35.4555C39.2547 34.5793 40 33.2024 40 31.3248V13.6752C40 11.9228 39.2547 10.4207 37.6398 9.54451ZM11.5088 35.1499C12.0355 35.4956 12.7333 35.1153 12.7333 34.4825V23.2655C12.7333 22.9911 12.593 22.736 12.362 22.5903L8.58264 20.2066C8.32236 20.0425 7.9912 20.0446 7.73301 20.2121L4.06884 22.5892C3.84269 22.7359 3.70605 22.9881 3.70605 23.2589V28.8806C3.70605 29.458 4.21463 30.3241 4.59606 30.6127L11.5088 35.1499ZM27.019 34.4814C27.019 35.1145 27.7173 35.4947 28.244 35.1485L35.1563 30.6052C35.5377 30.3161 36.0463 29.4487 36.0463 28.8705V17.6373C36.0463 17.3667 35.9098 17.1146 35.6839 16.9679L32.0198 14.5874C31.7614 14.4195 31.4298 14.4174 31.1693 14.5819L27.3899 16.969C27.1591 17.1148 27.019 17.3697 27.019 17.6439V34.4814ZM15.3613 36.7278V9.23981C15.3613 8.96729 15.4997 8.71367 15.7283 8.56743L19.45 6.18596C19.7093 6.02005 20.0406 6.02005 20.2999 6.18596L24.0216 8.56743C24.2502 8.71367 24.3886 8.96729 24.3886 9.23981V36.7278C24.3886 37.0003 24.2502 37.2539 24.0216 37.4001L20.2999 39.7816C20.0406 39.9475 19.7093 39.9475 19.45 39.7816L15.7283 37.4001C15.4997 37.2539 15.3613 37.0003 15.3613 36.7278Z" fill="white"/>
<path d="M53.75 35.6308V10H64.5484C69.3635 10 71.771 12.0493 71.771 16.1478C71.771 19.4816 69.4166 21.9491 64.7078 23.5503L73.3996 35.6308H69.0802L61.0257 24.1059V21.9372C65.8643 21.1605 68.2836 19.2785 68.2836 16.2912C68.2836 13.9253 66.9383 12.7423 64.2475 12.7423H57.0249V35.6308H53.75Z" fill="white"/>
<path d="M84.1804 16.811C89.4675 16.811 92.111 19.4577 92.111 24.7512C92.111 25.504 92.0579 26.3105 91.9517 27.1709H78.9051C78.9051 31.0185 81.1238 32.9423 85.5611 32.9423C87.6736 32.9423 89.5501 32.7033 91.1905 32.2253V34.9139C89.5501 35.3918 87.5556 35.6308 85.2071 35.6308C78.8224 35.6308 75.6301 32.4225 75.6301 26.0058C75.6301 19.8759 78.4802 16.811 84.1804 16.811ZM78.9051 24.4106H88.96C88.8892 21.1127 87.296 19.4637 84.1804 19.4637C80.8759 19.4637 79.1175 21.1127 78.9051 24.4106Z" fill="white"/>
<path d="M96.3419 34.7346V31.8669C98.5252 32.5838 100.732 32.9423 102.963 32.9423C105.925 32.9423 107.406 32.0461 107.406 30.2537C107.406 28.5808 106.373 27.7444 104.308 27.7444H101.653C97.6401 27.7444 95.6338 25.8923 95.6338 22.1881C95.6338 18.6034 98.2124 16.811 103.37 16.811C105.588 16.811 107.789 17.1097 109.973 17.7072V20.575C107.789 19.858 105.588 19.4995 103.37 19.4995C100.278 19.4995 98.7317 20.3957 98.7317 22.1881C98.7317 23.861 99.7053 24.6974 101.653 24.6974H104.308C108.557 24.6974 110.681 26.5495 110.681 30.2537C110.681 33.8385 108.108 35.6308 102.963 35.6308C100.732 35.6308 98.5252 35.3321 96.3419 34.7346Z" fill="white"/>
<path d="M118.735 16.811V35.6308H115.46V16.811H118.735ZM118.735 10V13.1366H115.46V10H118.735Z" fill="white"/>
<path d="M136.898 20.6466C135.576 20.0014 134.066 19.6788 132.366 19.6788C128.625 19.6788 126.755 21.6922 126.755 25.719C126.755 30.4867 128.625 32.8706 132.366 32.8706C134.066 32.8706 135.576 32.6376 136.898 32.1716V20.6466ZM140.173 34.5016C137.919 35.2544 135.14 35.6308 131.835 35.6308C126.3 35.6308 123.533 32.3687 123.533 25.8445C123.533 19.8222 126.471 16.811 132.349 16.811C133.954 16.811 135.47 17.1097 136.898 17.7072V10H140.173V34.5016Z" fill="white"/>
<path d="M153.149 16.811C158.436 16.811 161.079 19.4577 161.079 24.7512C161.079 25.504 161.026 26.3105 160.92 27.1709H147.873C147.873 31.0185 150.092 32.9423 154.53 32.9423C156.642 32.9423 158.518 32.7033 160.159 32.2253V34.9139C158.518 35.3918 156.524 35.6308 154.176 35.6308C147.791 35.6308 144.599 32.4225 144.599 26.0058C144.599 19.8759 147.449 16.811 153.149 16.811ZM147.873 24.4106H157.928C157.858 21.1127 156.264 19.4637 153.149 19.4637C149.844 19.4637 148.086 21.1127 147.873 24.4106Z" fill="white"/>
<path d="M165.487 35.6308V16.811H167.7L168.284 19.2128C170.184 17.6116 172.273 16.811 174.551 16.811C179.189 16.811 181.508 19.147 181.508 23.8191V35.6308H178.233V23.7654C178.233 20.9693 176.858 19.5712 174.108 19.5712C172.232 19.5712 170.45 20.3658 168.762 21.9551V35.6308H165.487Z" fill="white"/>
<path d="M186.836 13.764H188.89L189.598 16.811H194.625V19.4995H190.111V30.3075C190.111 32.064 190.861 32.9423 192.36 32.9423H194.625V35.6308H191.51C188.394 35.6308 186.836 33.94 186.836 30.5584V13.764Z" fill="white"/>
</svg>
